<svg width="71" height="71" viewBox="0 0 71 71" fill="none" xmlns="http://www.w3.org/2000/svg">
<g clip-path="url(#clip0_1_147)">
<path d="M45.8541 41.4166H43.5171L42.6887 40.6179C45.5879 37.2454 47.3333 32.8671 47.3333 28.1042C47.3333 17.4837 38.7246 8.875 28.1042 8.875C17.4837 8.875 8.875 17.4837 8.875 28.1042C8.875 38.7246 17.4837 47.3333 28.1042 47.3333C32.8671 47.3333 37.2454 45.5879 40.6179 42.6887L41.4166 43.5171V45.8541L56.2083 60.6162L60.6162 56.2083L45.8541 41.4166ZM28.1042 41.4166C20.7379 41.4166 14.7917 35.4704 14.7917 28.1042C14.7917 20.7379 20.7379 14.7917 28.1042 14.7917C35.4704 14.7917 41.4166 20.7379 41.4166 28.1042C41.4166 35.4704 35.4704 41.4166 28.1042 41.4166Z" fill="#DADADA"/>
</g>
<defs>
<clipPath id="clip0_1_147">
<rect width="71" height="71" fill="white"/>
</clipPath>
</defs>
</svg>
