<svg width="74" height="14" viewBox="0 0 74 14" fill="none" xmlns="http://www.w3.org/2000/svg">
<path d="M6.85581 13.4075C10.6445 13.4075 13.7116 10.4084 13.7116 6.70374C13.7116 2.99904 10.6445 0 6.85581 0C3.06707 0 0 2.99904 0 6.70374C0 10.4084 3.06707 13.4075 6.85581 13.4075Z" fill="#FF0033"/>
<path d="M6.85581 3.16781C8.84823 3.16781 10.4641 4.75554 10.4641 6.6961C10.4641 8.63665 8.84038 10.2244 6.85581 10.2244C4.87123 10.2244 3.24749 8.63665 3.24749 6.6961C3.24749 4.75554 4.87123 3.16781 6.85581 3.16781ZM6.85581 2.62323C4.55746 2.62323 2.69055 4.44873 2.69055 6.6961C2.69055 8.94346 4.55746 10.769 6.85581 10.769C9.15415 10.769 11.0211 8.94346 11.0211 6.6961C11.0211 4.44873 9.15415 2.62323 6.85581 2.62323Z" fill="white"/>
<path d="M5.53799 8.68267L9.04434 6.70376L5.53799 4.72485V8.69034V8.68267Z" fill="white"/>
<path d="M49.3634 2.18597H51.85L52.5089 5.62222C52.7756 7.01052 53.0658 9.06613 53.1678 9.96354H53.1757C53.2855 9.06613 53.5365 7.01819 53.8189 5.61455L54.5013 2.19364H56.9722V11.4592H55.4662V7.42471C55.4662 6.21282 55.5603 4.69412 55.6309 3.31349H55.6152L55.3877 4.52538L53.9758 11.4516H52.352L50.9322 4.52538L50.7204 3.31349H50.7047C50.7753 4.69412 50.8616 6.20515 50.8616 7.42471V11.4592H49.3555V2.19364L49.3634 2.18597Z" fill="#212121"/>
<path d="M57.8194 9.77177V4.67877H59.3804V9.6107C59.3804 10.209 59.5137 10.4698 59.8354 10.4698C60.157 10.4698 60.3138 10.3624 60.4864 9.92518V4.67877H62.0474V11.4515H60.7296L60.6355 10.5388C60.4472 11.1831 60.0628 11.5819 59.2784 11.5819C58.494 11.5819 57.8272 10.93 57.8272 9.77177H57.8194Z" fill="#212121"/>
<path d="M62.6593 9.38826L63.9771 9.36525C63.9065 10.1169 64.181 10.5465 64.6438 10.5465C65.1066 10.5465 65.2478 10.278 65.2478 9.92518C65.2478 9.57235 64.8086 9.14282 64.0634 8.57522C63.1691 7.91559 62.6436 7.44004 62.6436 6.35087C62.6436 5.26171 63.3025 4.56372 64.6281 4.56372C65.9538 4.56372 66.6127 5.24637 66.5107 6.89546L65.2008 6.94915C65.1929 5.93668 65.0439 5.63755 64.6046 5.63755C64.1653 5.63755 64.0085 5.84464 64.0085 6.22048C64.0085 6.7804 64.3144 7.02585 64.8243 7.39402C66.0479 8.27609 66.6127 8.68261 66.6127 9.79478C66.6127 10.907 65.9146 11.6203 64.5654 11.6203C63.2162 11.6203 62.4553 10.7996 62.6593 9.4036V9.38826Z" fill="#212121"/>
<path d="M67.1383 3.1064C67.1383 2.3854 67.4128 2.18597 67.9776 2.18597C68.5424 2.18597 68.8091 2.41608 68.8091 3.1064C68.8091 3.79671 68.5581 4.04983 67.9776 4.04983C67.3971 4.04983 67.1383 3.83506 67.1383 3.1064ZM67.2167 4.67878H68.7307V11.4516H67.2167V4.67878Z" fill="#212121"/>
<path d="M69.4758 8.52923V7.57812C69.4758 5.3461 70.0955 4.5484 71.6095 4.5484C73.1234 4.5484 72.7155 4.69413 73.0214 4.99327C73.3273 5.29241 73.5784 6.12079 73.4842 7.1716L72.1272 7.26365C72.1272 6.00574 72.0174 5.59922 71.5859 5.59922C71.1545 5.59922 71.029 6.02875 71.029 7.38637V8.69797C71.029 10.1016 71.1074 10.5311 71.5702 10.5311C72.0331 10.5311 72.1664 10.1476 72.1664 8.95109L73.5313 9.02012C73.5627 10.0709 73.3979 10.7536 72.9587 11.1524C72.6527 11.4362 72.2056 11.5743 71.5467 11.5743C70.0014 11.5743 69.468 10.8379 69.468 8.5369L69.4758 8.52923Z" fill="#212121"/>
<path d="M16.8022 11.4669V8.56757L15.0137 2.18597H16.5669L17.2101 5.01627C17.3592 5.66824 17.5082 6.604 17.5788 6.94149H17.5866C17.6572 6.61934 17.7984 5.68358 17.9553 5.03161L18.6221 2.19364H20.1752L18.3632 8.57524V11.4746H16.8022V11.4669Z" fill="#212121"/>
<path d="M23.964 7.80058V8.34516C23.964 10.7536 23.4227 11.5743 21.8068 11.5743C20.1909 11.5743 19.6497 10.7383 19.6497 8.34516V7.80058C19.6497 5.33845 20.2929 4.55609 21.8382 4.55609C23.3835 4.55609 23.964 5.3768 23.964 7.80058ZM22.3794 7.27901C22.3794 5.97507 22.2539 5.59924 21.8147 5.59924C21.3754 5.59924 21.2263 5.97507 21.2263 7.27901V8.83605C21.2263 10.186 21.3597 10.5235 21.7911 10.5235C22.2225 10.5235 22.3794 10.1783 22.3794 8.83605V7.27901Z" fill="#212121"/>
<path d="M24.615 9.77183V4.67883H26.176V9.61076C26.176 10.209 26.3094 10.4698 26.631 10.4698C26.9526 10.4698 27.1095 10.3624 27.282 9.92524V4.67883H28.843V11.4516H27.5252L27.4311 10.5389C27.2428 11.1831 26.8585 11.582 26.074 11.582C25.2896 11.582 24.6229 10.93 24.6229 9.77183H24.615Z" fill="#212121"/>
<path d="M29.9412 11.4516V3.4899H28.3959V2.18597H33.0397V3.4899H31.4944V11.4516H29.9334H29.9412Z" fill="#212121"/>
<path d="M32.6082 9.77183V4.67883H34.1692V9.61076C34.1692 10.209 34.3026 10.4698 34.6242 10.4698C34.9458 10.4698 35.1027 10.3624 35.2753 9.92524V4.67883H36.8362V11.4516H35.5184L35.4243 10.5389C35.236 11.1831 34.8517 11.582 34.0672 11.582C33.2828 11.582 32.6161 10.93 32.6161 9.77183H32.6082Z" fill="#212121"/>
<path d="M42.0291 7.53979V8.44487C42.0291 10.6309 41.5584 11.5513 40.5073 11.5513C39.4562 11.5513 39.3856 11.2752 39.1424 10.815L39.0405 11.4593H37.6834V1.84851H39.1895V3.78907C39.1895 4.2953 39.1973 4.80153 39.1581 5.41515H39.1738C39.4327 4.90891 39.8798 4.55609 40.5779 4.55609C41.582 4.55609 42.0448 5.20038 42.0448 7.54746L42.0291 7.53979ZM40.4367 7.53979C40.4367 5.97507 40.3034 5.62991 39.8641 5.62991C39.4248 5.62991 39.2915 5.88303 39.1738 6.36625V10.1016C39.3072 10.3624 39.5503 10.4698 39.7935 10.4698C40.2641 10.4698 40.4289 9.98658 40.4289 8.5139V7.53212L40.4367 7.53979Z" fill="#212121"/>
<path d="M46.7591 8.55226H44.1784V8.92043C44.1784 10.117 44.2098 10.5235 44.7118 10.5235C45.2138 10.5235 45.3236 10.1477 45.3315 9.37297L46.7042 9.43433C46.8062 10.907 46.0296 11.559 44.704 11.559C43.3783 11.559 42.6252 10.5312 42.6252 8.66731V7.4861C42.6252 5.52253 43.1586 4.55609 44.751 4.55609C46.3434 4.55609 46.7591 5.3768 46.7591 7.41707V8.55226ZM44.1784 7.18696V7.70087H45.206V7.18696C45.206 5.93672 45.1589 5.5839 44.6883 5.5839C44.2176 5.5839 44.1784 5.95207 44.1784 7.18696Z" fill="#212121"/>
</svg>
